<svg id="Layer_1" data-name="Layer 1" xmlns="http://www.w3.org/2000/svg" viewBox="0 0 390.88 84.89"><defs><style>.cls-1{fill:#f4f4f5;}</style></defs><title>Untitled-1</title><path class="cls-1" d="M181.68,274.44l24.81-60.29H221l24.46,60.29H231.9l-6.12-15.85H200.89l-6.2,15.85Zm23.09-25.84H222l-8.52-22.22Z" transform="translate(-54.56 -207.55)"/><path class="cls-1" d="M249.73,292.45V229.56h11.63v3.71A18.66,18.66,0,0,1,267.3,230a21.57,21.57,0,0,1,6.81-1.08,22.08,22.08,0,0,1,8.91,1.81,23.25,23.25,0,0,1,7.28,4.91,22.6,22.6,0,0,1,4.87,7.32,23.18,23.18,0,0,1,1.76,9.05,22.8,22.8,0,0,1-1.8,9,23.14,23.14,0,0,1-4.91,7.32,22.5,22.5,0,0,1-7.37,4.87,23.45,23.45,0,0,1-9.09,1.77,22.78,22.78,0,0,1-6.41-.91,21.6,21.6,0,0,1-5.82-2.63v20.94ZM272.21,239a16.16,16.16,0,0,0-5.94,1.08,13,13,0,0,0-4.74,3.14v17.66a13.72,13.72,0,0,0,4.69,3,16,16,0,0,0,6,1.12,12.76,12.76,0,0,0,9.31-3.74,13.15,13.15,0,0,0,0-18.52A12.75,12.75,0,0,0,272.21,239Z" transform="translate(-54.56 -207.55)"/><path class="cls-1" d="M302.45,252.05a22.92,22.92,0,0,1,6.93-16.58,23.85,23.85,0,0,1,7.62-5,25.26,25.26,0,0,1,18.78,0,23.89,23.89,0,0,1,7.63,5,22.92,22.92,0,0,1,6.93,16.58,22.79,22.79,0,0,1-6.93,16.54,24.8,24.8,0,0,1-34,0,22.79,22.79,0,0,1-6.93-16.54Zm23.94,13a11.68,11.68,0,0,0,8.79-3.79,12.83,12.83,0,0,0,3.62-9.21,13,13,0,0,0-3.62-9.31,12.08,12.08,0,0,0-17.57,0,13,13,0,0,0-3.62,9.31,12.79,12.79,0,0,0,3.62,9.21A11.67,11.67,0,0,0,326.39,265.05Z" transform="translate(-54.56 -207.55)"/><path class="cls-1" d="M369.38,211.56v62.88h-11.8V214.15Z" transform="translate(-54.56 -207.55)"/><path class="cls-1" d="M390.39,211.56v62.88h-11.8V214.15Z" transform="translate(-54.56 -207.55)"/><path class="cls-1" d="M397.54,252.05a23,23,0,0,1,6.94-16.58,23.74,23.74,0,0,1,7.62-5,25.26,25.26,0,0,1,18.78,0,23.74,23.74,0,0,1,7.62,5,23.4,23.4,0,0,1,5.09,25.75,22.61,22.61,0,0,1-5.09,7.37,24.79,24.79,0,0,1-34,0,22.43,22.43,0,0,1-5.08-7.37A22.68,22.68,0,0,1,397.54,252.05Zm23.95,13a11.7,11.7,0,0,0,8.79-3.79,12.83,12.83,0,0,0,3.61-9.21,13,13,0,0,0-3.61-9.31,12.09,12.09,0,0,0-17.58,0,13,13,0,0,0-3.61,9.31,12.83,12.83,0,0,0,3.61,9.21A11.71,11.71,0,0,0,421.49,265.05Z" transform="translate(-54.56 -207.55)"/><path class="cls-1" d="M116.19,209.06c-15.71,4-28.27,14.38-38.68,23-10.26,8.89-18.35,16-21.79,20-3.38,4.28.72,5.35,11,9.31a346.19,346.19,0,0,1,41.56,18.25c15.7,7.85,27,13.75,36.12,11.92,9-1.53,15.87-10.78,19.39-26.22,3.38-15.19.59-33-8.44-44.19C146.56,209.63,131.55,204.85,116.19,209.06Zm-7,62.76c-12-5.22-23.88-10.23-31.6-13.79C69.71,254.27,66.07,252,68,247.77c1.95-4,8.09-9.7,16.35-16,8.33-6.12,18.79-12.87,31-15,12-2.21,23.19,1.62,30.15,9.89,7.07,8.08,9.92,20.6,8,31.6s-7.4,18.14-14.9,19.91C131,280.17,121.32,276.91,109.15,271.82Z" transform="translate(-54.56 -207.55)"/><path class="cls-1" d="M143.31,253c-2.38,15.84-15.62,18.39-33.35,11.62-18-6.93-32.88-12.74-30.45-19.52s17.26-18.85,35-21.16C132.62,221.52,145.75,237.38,143.31,253Z" transform="translate(-54.56 -207.55)"/></svg>